<?xml version="1.0" encoding="UTF-8" standalone="no"?>
<svg
   xmlns:dc="http://purl.org/dc/elements/1.1/"
   xmlns:cc="http://creativecommons.org/ns#"
   xmlns:rdf="http://www.w3.org/1999/02/22-rdf-syntax-ns#"
   xmlns:svg="http://www.w3.org/2000/svg"
   xmlns="http://www.w3.org/2000/svg"
   xmlns:sodipodi="http://sodipodi.sourceforge.net/DTD/sodipodi-0.dtd"
   xmlns:inkscape="http://www.inkscape.org/namespaces/inkscape"
   enable-background="new 0 0 64 64"
   height="64px"
   version="1.1"
   viewBox="0 0 64 64"
   width="64px"
   xml:space="preserve"
   id="svg3855"
   sodipodi:docname="folder2_task4.svg"
   inkscape:version="0.92.4 (5da689c313, 2019-01-14)"><metadata
     id="metadata3861"><rdf:RDF><cc:Work
         rdf:about=""><dc:format>image/svg+xml</dc:format><dc:type
           rdf:resource="http://purl.org/dc/dcmitype/StillImage" /><dc:title></dc:title></cc:Work></rdf:RDF></metadata><defs
     id="defs3859" /><sodipodi:namedview
     pagecolor="#ffffff"
     bordercolor="#666666"
     borderopacity="1"
     objecttolerance="10"
     gridtolerance="10"
     guidetolerance="10"
     inkscape:pageopacity="0"
     inkscape:pageshadow="2"
     inkscape:window-width="1920"
     inkscape:window-height="1017"
     id="namedview3857"
     showgrid="false"
     inkscape:zoom="13.25"
     inkscape:cx="32"
     inkscape:cy="31.622642"
     inkscape:window-x="-8"
     inkscape:window-y="-8"
     inkscape:window-maximized="1"
     inkscape:current-layer="svg3855" /><g
     id="Layer_1"><g
       id="g3835"><circle
         cx="32"
         cy="32"
         fill="#E0995E"
         r="32"
         id="circle3833" /></g><g
       opacity="0.2"
       id="g3841"><g
         id="g3839"><path
           d="M32,22.923h-0.417H14.5c-1.38,0-2.5,1.063-2.5,2.422v22.193C12,48.897,13.12,50,14.5,50h35     c1.38,0,2.5-1.103,2.5-2.462V27.846v-2.501v-2.422H32z"
           fill="#231F20"
           id="path3837" /></g></g><g
       id="g3847"><g
         id="g3845"><path
           d="M32,20.923h-0.417H14.5c-1.38,0-2.5,1.063-2.5,2.422v22.193C12,46.897,13.12,48,14.5,48h35     c1.38,0,2.5-1.103,2.5-2.462V25.846v-2.501v-2.422H32z"
           fill="#FFFFFF"
           id="path3843" /></g></g><g
       id="g3851"><path
         d="M52,18.462C52,17.103,50.88,16,49.5,16H37c-1.38,0-2.5,1.103-2.5,2.462c0,0-0.325,2.257-2.5,2.461h20    V18.462z"
         fill="#E0E0D1"
         id="path3849" /></g></g><g
     id="Layer_2" /><text
     xml:space="preserve"
     style="font-style:normal;font-weight:normal;font-size:40px;line-height:1.25;font-family:sans-serif;letter-spacing:0px;word-spacing:0px;fill:#000000;fill-opacity:1;stroke:none"
     x="36.452831"
     y="23.773584"
     id="text3865"><tspan
       sodipodi:role="line"
       id="tspan3863"
       x="36.452831"
       y="60.266796"></tspan></text>
<text
     xml:space="preserve"
     style="font-style:normal;font-weight:normal;font-size:12px;line-height:1.25;font-family:sans-serif;letter-spacing:0px;word-spacing:0px;fill:#000000;fill-opacity:1;stroke:none"
     x="16"
     y="37.962265"
     id="text3869"><tspan
       sodipodi:role="line"
       id="tspan3867"
       x="16"
       y="37.962265"
       style="font-size:10.66666698px">Task 4</tspan></text>
</svg>