<?xml version="1.0" encoding="utf-8"?>
<!-- Generator: Adobe Illustrator 16.0.0, SVG Export Plug-In . SVG Version: 6.00 Build 0)  -->
<!DOCTYPE svg PUBLIC "-//W3C//DTD SVG 1.1//EN" "http://www.w3.org/Graphics/SVG/1.1/DTD/svg11.dtd">
<svg version="1.1"
	 id="svg3346" xmlns:cc="http://creativecommons.org/ns#" xmlns:dc="http://purl.org/dc/elements/1.1/" xmlns:inkscape="http://www.inkscape.org/namespaces/inkscape" xmlns:rdf="http://www.w3.org/1999/02/22-rdf-syntax-ns#" xmlns:sodipodi="http://sodipodi.sourceforge.net/DTD/sodipodi-0.dtd" xmlns:svg="http://www.w3.org/2000/svg"
	 xmlns="http://www.w3.org/2000/svg" xmlns:xlink="http://www.w3.org/1999/xlink" x="0px" y="0px" width="576px" height="576.043px"
	 viewBox="0 0 576 576.043" enable-background="new 0 0 576 576.043" xml:space="preserve">
<g id="layer1" transform="translate(810.7444,-103.27822)">
	<path id="path4178" fill="#FF0000" d="M-522.744,102.856c-159.058,0-288,129.022-288,288.179
		c0.04,94.327,46.213,182.663,123.617,236.503c0.342-2.117,0.677-4.236,1.089-6.327c0.584-2.965,1.238-5.904,1.959-8.814
		c0.458-1.848,0.953-3.678,1.465-5.501c-0.395,1.439-0.771,2.887-1.132,4.342c-0.721,2.91-1.375,5.85-1.959,8.814
		c-0.412,2.091-0.747,4.21-1.089,6.327c48.239,33.607,105.602,51.641,164.383,51.678c65.377-0.039,128.796-22.334,179.831-63.221
		c0.056,0.262,0.113,0.523,0.173,0.783c68.037-54.675,107.631-137.268,107.663-224.584
		C-234.745,231.878-363.687,102.856-522.744,102.856z"/>
	<ellipse id="path3362" fill="#1A1A1A" cx="-522.744" cy="378.876" rx="134.856" ry="130.286"/>
	<path id="path4180" fill="#1A1A1A" d="M-587.819,669.821c-9.505-2.169-25.877-7.058-36.381-10.864
		c-19.426-7.04-60.003-28.143-69.114-35.944c-4.946-4.233-4.958-4.483-0.87-17.958c14.354-47.304,50.384-87.588,96.609-108.019
		c27.987-12.369,47.798-16.046,79.202-14.698c60.204,2.583,111.943,33.764,143.662,86.574c8.592,14.308,19.616,43.489,19.411,51.386
		c-0.086,3.283-4.791,7.498-15.575,13.952c-35.004,20.951-75.599,35.168-114.967,40.264
		C-510.404,677.694-564.163,675.221-587.819,669.821L-587.819,669.821z"/>
	<path id="rect4182" fill="#1A1A1A" d="M-701.206,456.837l212.429,179.645c6.234,5.272,6.974,14.564,1.65,20.756l0,0
		c-5.322,6.19-14.69,6.936-20.925,1.664L-720.48,479.256c-6.234-5.271-6.973-14.564-1.65-20.755l0,0
		C-716.809,452.309-707.44,451.565-701.206,456.837z"/>
	<path id="rect4207" fill="#FBECD6" d="M-585.047,332.165h124.604c20.218,0,36.606,16.389,36.606,36.606v24.532
		c0,20.217-16.389,36.606-36.606,36.606h-124.604c-20.217,0-36.606-16.39-36.606-36.606v-24.532
		C-621.653,348.554-605.264,332.165-585.047,332.165z"/>
	<ellipse id="ellipse4213" fill="#1A1A1A" cx="-560.785" cy="382.201" rx="15.128" ry="18.618"/>
	<ellipse id="ellipse4247" fill="#1A1A1A" cx="-486.313" cy="382.201" rx="15.128" ry="18.618"/>
</g>
</svg>
